<?xml version="1.0"?>
<svg xmlns="http://www.w3.org/2000/svg" version="1.2" baseProfile="tiny" width="800" height="1255" viewBox="0 0 800 1255" stroke-linecap="round" stroke-linejoin="round">
<g id="COUNTY_MOI_1090820">
<path d="M 441 33.44 441.3 33.58 440.56 34.53 439.63 34.95 439.45 34.39 439.96 33.72 440.62 33.77 441 33.44 Z M 437.85 32.54 438.09 32.85 437.27 33.47 436.62 33.29 436.46 32.57 437.85 32.54 Z M 435.69 17.43 436.53 17.86 436.28 18.52 437.63 18.7 438.19 18.03 439 17.98 439.21 18.76 438.66 19.35 437.64 19.93 437.05 19.74 436.21 20.04 435.52 20.03 435.2 19.42 435.74 18.78 435.52 18.41 435.69 17.43 Z M 441.9 12.51 442.68 12.83 442.7 13.42 442.05 13.72 441.9 14.09 441.21 14.03 440.29 14.3 439.98 14.88 440.11 15.66 439.56 15.96 439.49 15.11 439.9 14.55 439.75 14.04 440.51 13.46 440.87 13.53 441.9 12.51 Z M 441.37 9.08 441.57 9.63 441.08 10.28 440.53 10.04 441.37 9.08 Z M 479.71 1.17 480.01 1.63 479.86 2.09 480.22 2.19 480.7 2.11 480.98 1.51 481.56 2.1 481.7 2.53 480.41 3.18 479.99 2.93 480.16 2.27 479.82 2.13 479.26 1.72 479.71 1.17 Z"/>
<path d="M 595.52 121.52 595.94 121.98 594.61 122.27 594 122.02 594.57 121.02 595.25 121.07 595.52 121.52 Z M 596.02 110.71 593.69 111.43 592.85 111.85 592.12 113.15 591.27 113.56 591.18 113.97 590.45 114.03 589.9 114.46 589.71 115.73 588.66 116.82 588.19 117.05 587.76 117.64 587.04 117.98 586.37 119.08 585.42 121.09 584.93 122.78 584.57 124.78 584.43 126.74 584.47 127.78 584.67 129.13 585.05 130.28 585.59 131.3 586.09 131.5 585.87 132.21 586.03 134.29 586.01 134.98 586.27 136.28 587.1 138.49 587.62 139.38 588.2 139.91 589.35 140.25 589.68 140.71 588.77 140.95 589.23 141.38 588.49 142.55 588.6 144.36 588.82 144.96 588.79 145.8 588.39 146.34 586.31 146.92 586.02 148 586.17 148.66 586.98 148.92 586.99 149.69 587.36 150.03 586.25 150.42 585.63 151.02 584.62 151.53 584.74 151.96 583.87 153.09 583.17 153.65 582.33 155.69 582.17 156.53 582.01 158.48 580.96 160.74 580.75 161.61 581 162.96 580.69 163.13 579.83 163.05 578.7 162.37 577.38 162.12 576.32 162.07 574.99 161.48 574.38 161.53 573.95 160.97 573.32 161.23 573.17 160.76 571.15 159.59 571.2 160.29 569.8 158.64 569.08 158.94 569.08 159.68 569.52 160.29 570.12 160.37 569.96 161.42 569.46 161.37 568.96 160.61 568.61 161.56 567.97 161.4 567.33 161.55 567.11 161.96 567.93 163.17 566.89 162.87 566.4 162.9 565.49 162.62 565 162.75 564.25 162.39 563.94 161.72 563.05 161.2 562.72 161.35 561.72 161.09 561.29 160.79 560.34 160.94 559.89 160.8 559.4 161.09 558.42 160.37 556.81 159.81 555.8 159.1 555.5 158.48 555.08 158.43 554.68 157.67 554.03 157.66 553.26 157.96 552.35 158.09 551.77 157.93 550.88 158.36 550.25 158.93 549.66 158.82 549.16 157.96 548.98 157.19 548.23 156.87 547.22 156.91 546.91 157.11 546.43 156.49 546.09 156.47 545.86 155.79 546.05 155.31 546.1 153.68 545.28 153.09 545.54 152.48 546.22 151.4 546.72 151.06 547.48 149.73 548.1 149.63 548.43 149.55 548.99 148.83 549.43 148.68 549.64 147.73 549.96 147.74 550.16 147.75 550.59 147.4 550.95 146.79 551.11 146.61 551.13 146.6 551.86 146.22 551.47 145.39 551.63 144.74 551.31 144.16 551.69 143.72 551.83 143.55 552.04 143.11 552.68 142.79 552.47 142.2 552.47 142.19 552.25 141.89 552.22 141.84 551.97 141.33 552.73 140.4 553.16 140.6 553.9 140.21 554.45 138.77 555.25 137.32 555.75 136.69 555.48 136.37 556.38 134.96 557.18 135.05 557.99 134.91 558.98 134.96 560.51 134.07 561.41 134.17 561.83 133.83 562.44 133.76 562.51 132.88 562.95 132.41 563.49 132.42 564.11 132 565.6 131.7 565.64 131.16 566.41 131.27 566.91 130.57 567.01 129.8 566.59 128.8 566.63 128.11 567.19 127.18 566.75 126.01 567.82 125.89 568.13 125.52 568.98 125.62 569.73 124.33 571.09 123.95 572.09 124.17 572.76 123.71 573.38 123.93 573.7 123.66 574.37 123.68 574.33 122.98 576.32 121.76 576.92 121.13 577.75 120.67 578.49 120.93 579.97 120.6 580.61 119.88 581.08 119.82 581.85 119.12 581.59 118.04 582.24 117.72 582.44 117.21 583.85 116.92 584.46 117 585.52 116.83 587.1 115.35 586.67 114.25 586.14 113.91 586.26 112.97 586.72 112.49 587.82 112.23 588.62 112.46 590.63 111.96 591.07 111.39 591.64 111.36 592.12 110.99 593.47 110.88 594.29 110.33 595.77 110.34 596.02 110.71 Z M 714.22 50.56 715.06 50.74 715.57 51.17 715.19 51.46 714.26 51.38 713.27 51.88 712.89 51.83 712.9 51.16 714.22 50.56 Z"/>
<path d="M 477.91 171.42 481.65 172.68 481.94 172.99 483.33 176.01 483.16 176.72 483.83 177.7 484.46 177.93 485.19 178.72 486.99 179.16 487.84 179.06 488.27 179.33 490.1 179.61 490.32 181.04 490.67 181.92 491.11 182.24 490.98 183.46 491.33 184.63 491.37 185.31 492.64 185.6 493.49 185.23 495.28 186.53 494.81 187.17 494.31 187.03 492.76 186.92 492.38 186.99 491.96 187.76 492.07 188.12 493.05 188.81 492.79 189.56 492.8 190.5 492.01 191.33 491.4 191.56 491.89 192.42 491.46 193.15 492.05 193.53 491.62 194.64 491.84 195.39 491.79 196.09 491.44 196.28 490.71 198.14 491.26 198.85 490.61 200.02 491.2 200.16 492.12 201.02 492.26 201.69 493.1 202.29 494.42 201.98 494.96 201.71 495.3 202.01 495.31 202.82 495.01 203.3 494.34 203.78 492.29 204.37 491.72 204.15 490.3 203.96 488.55 203.98 487.04 203.57 485.28 203.19 484.04 203.18 483.58 203.34 482.17 203.27 479.99 202.77 478.03 202.02 477.55 201.93 476.07 200.92 475.43 200.92 474.29 201.22 472.14 201.05 471.16 201.05 470.36 201.46 468.25 201.54 466.29 201.69 462.14 200.6 460.65 199.51 459.42 198.1 459.93 197.19 460.6 196.61 461.52 196.36 462.15 195.91 462.35 195.51 462.23 194.84 462.61 193.91 463.24 193.06 464.06 192.73 464.12 191.67 464.41 191.09 466.2 189.8 466.34 188.64 466.94 187.69 468.33 186.54 468.61 185.18 468.9 184.53 468.95 182.93 469.58 182.05 470.29 181.82 470.61 181.31 471.7 181.08 472.24 180.77 472.06 180.05 473.23 178.44 473.57 177.46 473.48 177.05 474.04 176.71 474.65 175.3 474.74 174.37 476.04 173.03 476.92 172.85 477.91 171.42 Z"/>
<path d="M 547.27 170.14 547.65 171 547.79 171.96 546.7 172.05 545.92 172.28 545.16 173.11 544.34 173.54 542.97 173.73 542.95 175.33 542.7 175.73 542.45 177 543.58 177.27 544.18 177.88 545.15 178.52 546.13 178.68 545.88 179.66 545.4 180.17 545.71 180.99 544.54 181.9 543.82 182.81 543.55 182.64 542.59 183.39 542.79 184.52 542.07 185.71 542.05 186.05 541.51 187.14 540.78 188.23 540.9 189.1 541.15 189.56 541.81 189.56 542.17 190.31 541.97 190.73 541.72 192.47 542.07 193.64 541.94 194.87 541.26 194.89 541.2 196.14 541.43 196.73 540.22 198 539.91 199.2 539.19 200.07 538.78 202.33 538.24 202.61 538.07 203.42 538.3 204.44 536.5 205.54 537.11 206.6 537.76 206.98 538.62 207.15 538.33 207.64 538.4 208.74 538.68 208.84 539.15 209.77 539.3 210.4 539.16 212.14 538.63 212.96 538.9 213.41 538.85 214.13 538.58 214.4 538.45 215.18 537.98 215.87 538.01 216.83 537.43 217.78 537.11 218.92 536.57 219.26 535.65 218.89 535.25 219.34 534.5 219.71 534.42 220.25 533.68 219.98 532.43 219.96 532.32 220.97 532.98 221.45 532.73 222.09 532.26 222.07 531.98 222.61 532.23 223.17 531.92 224.09 531.93 224.63 531.25 225.14 531.04 225.56 529.85 225.11 528.54 225.27 528.06 225.06 527.64 225.59 526.9 225.6 525.79 225.31 525.6 226.28 525.29 226.8 524.56 227.26 524.24 228.11 523.48 228.76 525.05 229.74 524.5 230.59 523.05 231.02 522.5 231.52 521.62 231.81 521.26 230.94 521.67 230.54 521.09 229.72 520.41 229.72 518.79 229.15 517.82 228.97 517.11 229.14 516.32 229.33 515.57 228.87 515.01 229.05 513.97 228.66 511.6 228.66 511.1 229.29 510.5 229.22 509.76 228.83 507.83 229.01 507.33 228.73 506.9 228.06 506.57 226.84 506.59 225.9 506.2 224.92 505.45 223.92 505.47 223.17 505.88 222.37 506.4 221.85 506.31 220.9 506.63 219.93 505.87 218.86 505.06 219.19 504.38 219.15 504.07 218.86 503.18 218.8 501.99 217.97 501.1 217.77 499.76 218.18 499.37 218.08 499.36 217.52 498.82 217.22 498.41 216.59 497.98 216.75 498.06 217.29 497.35 217.58 496.29 217.33 495.86 217.51 495.67 218.08 494.54 218.2 493.92 218.11 493.15 217.66 493.33 216.68 492.66 216.51 491.9 217.37 491.56 217.23 491.41 216.18 491.89 215.56 491.87 214.89 492.3 213.89 492.79 213.26 492.78 211.75 492.28 210.34 492.24 209.02 492.62 208.24 493.39 207.99 493.51 206.9 492.93 205.38 492.29 204.37 494.34 203.78 495.01 203.3 495.31 202.82 495.3 202.01 494.96 201.71 494.42 201.98 493.1 202.29 492.26 201.69 492.12 201.02 491.2 200.16 490.61 200.02 491.26 198.85 490.71 198.14 491.44 196.28 491.79 196.09 491.84 195.39 491.62 194.64 492.05 193.53 491.46 193.15 491.89 192.42 491.4 191.56 492.01 191.33 492.8 190.5 492.79 189.56 493.05 188.81 492.07 188.12 491.96 187.76 492.38 186.99 492.76 186.92 494.31 187.03 494.81 187.17 495.28 186.53 496.55 187.07 497.45 187.23 498.46 186.88 499.44 186.93 500.37 187.46 500.56 187.74 501.48 187.17 502.48 186.92 502.91 186.13 503.61 185.63 504.56 184.43 505.05 183.53 505.33 182.61 505.95 182.17 507.07 182.04 507.01 180.24 507.48 179.21 507.62 178.48 508.29 177.89 508.99 177.89 509.26 178.45 510.46 178.5 511.16 179.77 510.79 180.5 511.2 180.72 511.94 179.91 512.21 178.51 512.99 178.67 513.16 178.97 514.16 179.22 515.1 178.85 516.53 177.63 517.39 178.23 518.16 178.22 518.49 178.48 519.6 178.32 519.82 177.82 520.32 177.7 520.7 177.16 520.99 176.29 521.64 175.42 522.64 175.17 522.88 175.69 523.39 175.28 524.15 175.11 524.54 175.52 525.07 174.9 525.46 174.89 527.58 173.33 527.97 172.6 528.7 172.2 531.02 172.28 531.49 172.01 532 170.98 533.04 170.78 533.55 170 534.57 171.02 535.18 170.82 535.82 170.17 536.71 170.29 537.62 169.69 539.05 170.44 539.53 170.22 540.39 168.6 541.2 168.41 541.47 169.02 542.16 169.49 543.37 169.7 543.82 169.18 544.19 169.34 545.82 169.4 547.27 170.14 Z"/>
<path d="M 448.53 224.87 449.29 225.17 449.5 225.92 448.72 225.83 447.55 226.58 447.2 227.29 446.93 228.35 446.37 228.06 445.72 228.53 444.51 228.35 443.98 229.03 444.1 229.86 443.38 229.96 443.49 229.26 442.53 229.86 441.94 229.43 442.21 228.87 443.03 228.42 443.44 227.99 445.15 227 447.17 225.58 448.53 224.87 Z M 449.96 223.5 450.84 224.36 450.58 224.61 449.31 224.31 449.96 223.5 Z M 452.54 223.1 452.87 223.36 452.53 224.05 452.17 223.9 452.07 223.28 452.54 223.1 Z M 452.54 221.81 452 222.15 451.77 222.65 450.75 223.22 450.4 223 450.97 222.39 451.57 222.33 451.92 221.83 452.54 221.81 Z M 492.29 204.37 492.93 205.38 493.51 206.9 493.39 207.99 492.62 208.24 492.24 209.02 492.28 210.34 492.78 211.75 492.79 213.26 492.3 213.89 491.87 214.89 491.89 215.56 491.41 216.18 491.56 217.23 491.9 217.37 492.66 216.51 493.33 216.68 493.15 217.66 493.92 218.11 494.54 218.2 495.67 218.08 495.86 217.51 496.29 217.33 497.35 217.58 498.06 217.29 497.98 216.75 498.41 216.59 498.82 217.22 499.36 217.52 499.37 218.08 498.88 218.64 499.5 219.14 499.3 219.44 499.61 220.13 499.48 220.73 498.36 221.35 497.29 220.89 496.49 220.77 495.1 221.22 494.67 220.61 493.11 221.09 492.53 220.63 492.97 220.28 492.7 219.44 491.53 219.72 491.1 219.66 490.62 220.17 489.9 220.29 488.26 220.06 487.31 220.22 486.86 219.87 485.83 219.77 485.73 219.49 484.2 219.34 482.68 218.06 481.81 216.89 481.77 216.28 481.27 216.19 480.2 216.53 479.64 216.37 478.23 216.63 477.82 216.85 476.94 216.55 476.7 216.9 475.2 217.42 473.69 216.82 472.43 217.29 471.9 218.15 470.86 218.32 470.81 218.7 470.09 219.4 468.29 219.57 468.25 220.56 467.25 221.09 466.59 220.89 466.18 221.16 466.48 221.71 465.47 221.71 464.82 221.97 464.95 222.75 463.81 223.35 463.46 224.35 462.8 224.13 462.22 223.15 461.3 223.29 461.12 223.73 461.48 225.67 460.89 226.15 459.63 226.42 458.22 225.83 457.45 225.77 456.34 225.98 455.22 225.41 454.56 225.51 453.59 225.13 453.57 224.68 453.94 224.26 453.1 222.86 453.4 221.11 453.19 221.04 453.27 219.53 453.09 218.96 453.16 218.25 452.91 217.34 452.45 217.02 451.85 217.22 451.14 216.36 451.88 215.55 452.76 213.68 453.08 212.34 453.56 211.74 453.68 210.58 454.4 209.9 454.38 209.58 455.16 207.83 455.23 206.76 455.42 206.49 454.93 205.43 454.93 204.87 454.46 204.5 455.1 203.72 456.38 202.46 456.43 202.05 457.18 201.85 458.43 200.37 458.24 199.5 458.95 199.31 459.34 198.71 459.42 198.1 460.65 199.51 462.14 200.6 466.29 201.69 468.25 201.54 470.36 201.46 471.16 201.05 472.14 201.05 474.29 201.22 475.43 200.92 476.07 200.92 477.55 201.93 478.03 202.02 479.99 202.77 482.17 203.27 483.58 203.34 484.04 203.18 485.28 203.19 487.04 203.57 488.55 203.98 490.3 203.96 491.72 204.15 492.29 204.37 Z"/>
<path d="M 583.3 98.73 583.42 99.54 582.8 99.9 582.85 100.44 582.26 100.6 580.91 99.99 580.44 100.58 579.85 100.58 579.59 100.9 579.87 101.5 579.83 102.78 581.12 103.91 580.08 104.93 579.84 104.73 578.79 105.24 577.73 105.26 576.98 104.81 576.17 104.06 575.15 104.11 574.29 103.77 573.17 102.9 571.73 102.06 571.21 101.41 571.46 101.19 570.99 100.49 570.74 99.38 569.62 98.85 569.47 98.46 570.47 97.99 571.28 98.03 571.92 97.48 573.45 97.19 574.52 96.37 575.12 96.3 575.38 95.81 575.91 95.64 575.93 95.62 575.96 95.57 575.77 96.39 577.05 96.46 579 97.16 580.33 96.6 581.21 96.9 581.05 97.18 582.49 97.89 583.58 97.72 583.3 98.73 Z M 604.81 59.84 605.33 60.14 604.99 60.61 604.37 60.34 604.81 59.84 Z"/>
<path d="M 565.11 93.96 565.73 94.19 566.12 94.61 566.07 95.49 565.58 96.32 566.58 96.57 567.05 98.15 567.7 98.73 567.51 99.52 567.03 100.52 567.18 100.82 568.59 101.26 569.2 101.8 569.62 102.62 569.28 103.09 569.06 103.94 568.64 104.38 569.07 104.66 568.66 105.62 569.09 106.25 571.31 107.22 572.54 107.05 572.39 107.57 570.74 107.46 569.14 108.03 568.06 107.78 567.18 108.23 567.04 108.82 567.42 109.33 567.23 109.82 567.39 111.19 568.88 111.69 568.04 112.27 567.15 112.48 566.86 112.19 566.26 112.26 565.7 112 565.26 112.19 564.34 112.15 563.7 110.89 562.44 110.27 561.94 109.54 562.2 109.1 561.06 107.86 560.27 107.72 559.57 108.45 558.98 108.64 558.67 108.19 558.68 107.56 558.27 106.62 558.68 106.05 559.66 105.79 560.04 105.19 560.1 103.92 559.76 102.89 558.7 101.81 558.07 101.49 556.92 101.43 556.21 101 556.78 99.63 556.86 99.09 558.21 97.63 558.49 97.59 559.77 95.86 560.37 96.13 561.12 96.13 561.25 95.38 562.9 94.6 563.18 93.97 563.86 93.08 564.46 93.01 564.63 93.66 565.11 93.96 Z"/>
<path d="M 575.96 95.57 575.93 95.62 575.91 95.64 575.38 95.81 575.12 96.3 574.52 96.37 573.45 97.19 571.92 97.48 571.28 98.03 570.47 97.99 569.47 98.46 569.62 98.85 570.74 99.38 570.99 100.49 571.46 101.19 571.21 101.41 571.73 102.06 573.17 102.9 574.29 103.77 575.15 104.11 576.17 104.06 576.98 104.81 577.73 105.26 578.79 105.24 579.84 104.73 580.08 104.93 581.12 103.91 579.83 102.78 579.87 101.5 579.59 100.9 579.85 100.58 580.44 100.58 580.91 99.99 582.26 100.6 582.85 100.44 582.8 99.9 583.42 99.54 583.3 98.73 583.84 98.97 584.74 98.74 584.58 99.67 585.26 99.43 586.3 99.3 588.12 99.75 589.08 99.6 590.62 100.02 591.2 99.66 592.03 99.65 592.51 99.89 592.93 100.92 592.3 101.54 592.38 101.96 591.98 102.36 592.05 103.28 592.85 103.75 593.33 104.45 593.12 106.18 593.55 106.85 594.54 107.74 596.09 107.51 596.61 107.31 598.61 107.85 599.22 108.54 598.96 109.23 598.42 109.33 597.41 110.12 596.02 110.71 595.77 110.34 594.29 110.33 593.47 110.88 592.12 110.99 591.64 111.36 591.07 111.39 590.63 111.96 588.62 112.46 587.82 112.23 586.72 112.49 586.26 112.97 586.14 113.91 586.67 114.25 587.1 115.35 585.52 116.83 584.46 117 583.85 116.92 582.44 117.21 582.24 117.72 581.59 118.04 581.85 119.12 581.08 119.82 580.61 119.88 579.97 120.6 578.49 120.93 577.75 120.67 576.92 121.13 576.32 121.76 574.33 122.98 574.37 123.68 573.7 123.66 573.38 123.93 572.76 123.71 572.09 124.17 571.09 123.95 569.73 124.33 568.98 125.62 568.13 125.52 567.82 125.89 566.75 126.01 567.19 127.18 566.63 128.11 566.59 128.8 567.01 129.8 566.91 130.57 566.41 131.27 565.64 131.16 565.6 131.7 564.11 132 563.49 132.42 562.95 132.41 562.51 132.88 562.44 133.76 561.83 133.83 561.41 134.17 560.51 134.07 558.98 134.96 557.99 134.91 557.67 134.47 557.44 133.67 557.54 133.16 555.67 132.42 554.49 130.28 553.56 127.92 554.19 127.23 555.6 126.13 554.72 125.4 554.58 124.08 554.07 123.87 553.57 123.04 553.1 123.06 552.95 122.26 551.94 121.62 551.23 121.59 550.56 121.84 550 122.34 548.42 121.94 548.19 121.59 547.56 121.44 547.05 121.64 546.8 121.26 548.01 121.19 548.1 120.46 547.61 120.18 547.5 119.7 548.16 119.3 547.47 118.77 547.2 117.79 546.43 117.73 545.57 117.21 545.95 116.49 545.28 115.93 545.83 115.38 546.58 115.28 546.59 114.88 545.72 114.76 545.14 114.2 545.86 113.8 546.1 113.39 546.18 112.47 546.03 111.14 547.25 110.77 548.13 111.12 548.89 110.98 549.28 111.2 550.33 110.64 550.48 109.73 551.28 109.89 551.98 109.44 551.69 108.84 551.05 108.43 551.54 108.12 552.68 107.91 551.59 107.02 551.63 106.36 551.15 105.99 551.53 105.35 550.84 104.93 550.64 104.44 549.9 104.21 548.2 104.29 547.73 103.03 546.93 102.84 545.84 102.14 544.72 101.83 544.13 101.81 543.77 101.21 542.55 100.77 542.6 100.17 543.23 100.11 543.95 99.59 545.48 99.73 546.92 99.45 548.09 99.09 548.95 98.6 550.93 97.83 550.79 97.49 551.08 96.24 551.91 96.96 552.16 96.83 553.2 95.5 553.01 95.25 552.06 95.06 552.11 94.53 553.19 94.4 553.21 93.79 554.14 92.49 554.54 92.4 555.34 90.58 555.85 89.6 556.62 89.66 557.33 89.35 558.06 88.19 560.29 87.21 561.58 87.01 562.16 86.7 562.19 86.14 563.5 86.57 564.27 86.54 564.98 86.03 565.63 86 566.33 86.43 567.15 86.57 568 87.36 569.19 87.95 570.05 89.04 570.18 89.82 570.03 90.56 570.72 91.32 571.39 91.13 571.3 91.96 571.75 92.7 573.05 93.57 573.49 93.27 574.63 93.07 574.73 93.6 574.1 94.36 574.63 95.29 575.41 95.25 575.96 95.57 Z M 565.11 93.96 564.63 93.66 564.46 93.01 563.86 93.08 563.18 93.97 562.9 94.6 561.25 95.38 561.12 96.13 560.37 96.13 559.77 95.86 558.49 97.59 558.21 97.63 556.86 99.09 556.78 99.63 556.21 101 556.92 101.43 558.07 101.49 558.7 101.81 559.76 102.89 560.1 103.92 560.04 105.19 559.66 105.79 558.68 106.05 558.27 106.62 558.68 107.56 558.67 108.19 558.98 108.64 559.57 108.45 560.27 107.72 561.06 107.86 562.2 109.1 561.94 109.54 562.44 110.27 563.7 110.89 564.34 112.15 565.26 112.19 565.7 112 566.26 112.26 566.86 112.19 567.15 112.48 568.04 112.27 568.88 111.69 567.39 111.19 567.23 109.82 567.42 109.33 567.04 108.82 567.18 108.23 568.06 107.78 569.14 108.03 570.74 107.46 572.39 107.57 572.54 107.05 571.31 107.22 569.09 106.25 568.66 105.62 569.07 104.66 568.64 104.38 569.06 103.94 569.28 103.09 569.62 102.62 569.2 101.8 568.59 101.26 567.18 100.82 567.03 100.52 567.51 99.52 567.7 98.73 567.05 98.15 566.58 96.57 565.58 96.32 566.07 95.49 566.12 94.61 565.73 94.19 565.11 93.96 Z"/>
<path d="M 555.8 159.1 554.98 159.57 554.51 160.46 554.27 161.84 554.46 162.39 553.77 163.06 553.55 163.51 552.15 163.51 551.94 164.47 550.2 165.76 550.61 166.97 550.56 167.67 549.15 167.9 548.65 168.54 548.02 168.55 547.97 169.32 547.27 170.14 545.82 169.4 544.19 169.34 543.82 169.18 543.37 169.7 542.16 169.49 541.47 169.02 541.2 168.41 540.39 168.6 539.53 170.22 539.05 170.44 537.62 169.69 536.71 170.29 535.82 170.17 535.18 170.82 534.57 171.02 533.55 170 533.04 170.78 532 170.98 531.49 172.01 531.02 172.28 528.7 172.2 527.97 172.6 527.58 173.33 525.46 174.89 525.07 174.9 524.54 175.52 524.15 175.11 523.39 175.28 522.88 175.69 522.64 175.17 521.64 175.42 520.99 176.29 520.7 177.16 520.32 177.7 519.82 177.82 519.6 178.32 518.49 178.48 518.16 178.22 517.39 178.23 516.53 177.63 515.1 178.85 514.16 179.22 513.16 178.97 512.99 178.67 512.21 178.51 511.94 179.91 511.2 180.72 510.79 180.5 511.16 179.77 510.46 178.5 509.26 178.45 508.99 177.89 508.29 177.89 507.62 178.48 507.48 179.21 507.01 180.24 507.07 182.04 505.95 182.17 505.33 182.61 505.05 183.53 504.56 184.43 503.61 185.63 502.91 186.13 502.48 186.92 501.48 187.17 500.56 187.74 500.37 187.46 499.44 186.93 498.46 186.88 497.45 187.23 496.55 187.07 495.28 186.53 493.49 185.23 492.64 185.6 491.37 185.31 491.33 184.63 490.98 183.46 491.11 182.24 490.67 181.92 490.32 181.04 490.1 179.61 488.27 179.33 487.84 179.06 486.99 179.16 485.19 178.72 484.46 177.93 483.83 177.7 483.16 176.72 483.33 176.01 481.94 172.99 481.65 172.68 477.91 171.42 478.87 170.85 479.45 170.08 480.56 167.66 480.77 166.81 481.16 166.98 481.94 165.41 482.15 164.77 482.62 164.28 483.16 162.92 483.83 162.55 484.5 161.39 484.89 161.43 485.94 160.26 486.11 159.5 486.8 158.75 486.87 158.35 488.34 156.39 489.04 155.72 490.84 153.18 491.37 153.36 492.23 154.16 492.49 155.01 492.94 155.59 494.11 156.15 495.18 157.57 495.83 157.98 496.33 158.81 497.53 159.63 499.33 160.1 501.53 161.92 503.51 162.72 505.21 162.91 506.15 163.58 506.76 164.41 507.41 164.9 509.26 165.01 510.64 164.56 512.96 164.77 513.52 164.63 514.36 163.88 513.94 161.36 515.39 160.8 515.93 161.1 517.05 161.08 517.31 161.41 518.27 161.54 519.02 161.35 519.73 161.83 520.8 161.66 521.56 162.58 521.84 163.27 522.73 163.79 523.19 164.38 523.97 164.52 524.51 164.24 524.75 163.35 525.56 162.93 526.17 162.41 526.81 162.28 527.21 162.78 528.43 162.23 528.93 161.73 529.42 161.92 529.94 161.76 529.98 161.31 530.45 160.88 530.69 160.3 531.46 159.49 532.11 159.62 533.57 159.41 534.1 158.38 534.77 157.82 535.31 157.77 535.84 156.96 535.86 156.6 536.91 156.67 537.13 157.73 538.53 157.61 538.79 156.54 539.49 155.89 539.51 154.76 539.99 154.38 540.59 154.37 540.69 153.36 540.76 154.03 541.55 154.19 542.09 154.04 542.59 153.96 543.38 153.89 543.42 153.83 544.35 153.78 545.28 153.09 546.1 153.68 546.05 155.31 545.86 155.79 546.09 156.47 546.43 156.49 546.91 157.11 547.22 156.91 548.23 156.87 548.98 157.19 549.16 157.96 549.66 158.82 550.25 158.93 550.88 158.36 551.77 157.93 552.35 158.09 553.26 157.96 554.03 157.66 554.68 157.67 555.08 158.43 555.5 158.48 555.8 159.1 Z"/>
<path d="M 493.31 248.31 493.53 248.85 493.15 249.57 492.52 249.97 491.99 251 492.27 251.53 491.96 252.18 490.43 253.11 490.06 254.01 489.22 254.6 488.23 256.23 488.2 256.93 487.1 258.47 486.71 259.28 485.9 259.98 485.57 260.49 483.67 261.5 483.16 262.15 481.98 263.15 481.6 263.64 479.95 264.66 479.61 265.6 478.24 265.57 478.29 266.02 477.81 266.57 477.64 267.55 477.02 267.48 476.06 269.32 475.7 270.54 474.77 272.42 474.24 272.62 473.4 271.96 472.11 272.09 471.72 272.28 471.32 273.08 470.31 273.59 469.86 274.29 469.19 274.53 468.2 274.54 467.77 273.82 467.16 274.09 466.88 273.77 465.92 273.67 464.45 273.33 463.93 273.36 464.05 273.99 463.64 274.07 462.57 273.57 462.25 274.17 461.56 273.84 461.19 273.43 460.43 273.28 460.31 272.5 459.98 272.39 459.41 272.95 458.46 272.51 457.97 272.47 457.21 272.04 455.86 272.79 455.72 272.19 455.89 271.12 455.64 269.81 454.91 268.62 454.6 267.84 453.72 266.83 452.73 265.92 450.81 264.4 449 263.32 447.03 262.42 446.72 262.51 446.08 261.79 445.23 260.55 444.42 260.67 444.37 260 444.94 257.85 445.62 256.55 446.26 256.02 446.57 255.05 446.74 253.75 447.15 252.5 448.25 250.19 448.59 248.48 448.49 247.29 449.17 246.34 449.49 245.11 449.61 243.94 449.56 242.79 449.72 242.48 450.54 241.99 450.85 241.59 451.07 240.67 450.87 239.91 451.42 239.26 452.53 240.08 453.8 240.86 453.81 241.27 455.19 241.74 455.56 242.05 456.16 243.05 457.18 242.38 458.17 243.04 458.96 243 459.47 242.72 459.86 242.15 460.28 241.13 460.81 240.29 461.36 240.31 462.15 240.01 463.08 239.22 462.58 238.92 462.97 238.32 463.61 238.3 463.8 238.63 464.57 238.48 464.38 237.57 465.11 236.51 466.51 236.5 466.52 235.71 467.05 235.48 467.35 235.86 468.25 235.69 469.02 234.84 469.53 234.48 472 234.31 473.2 234 474.22 233.61 475.31 234.08 475.95 233.97 476.48 233.53 477.82 234.06 479.28 234.79 479.7 235.55 480.6 234.93 481.24 235.53 480.16 236.12 479.98 236.8 481.68 237.01 482.28 237.72 482.27 238.05 481.59 238.41 481.91 239.04 482.52 238.98 483.97 239.61 484.44 240.22 483.77 241 483.07 241.47 483.34 243.01 483.02 243.35 483.04 244.44 483.59 245.69 483.65 246.48 482.8 247.16 483.4 247.81 484.55 248.05 485.6 248.85 486.41 248.59 487.45 249.04 488.08 248.34 488.65 247.14 488.89 247.9 489.89 248.45 491.34 247.93 492.8 248.11 493.31 248.31 Z"/>
<path d="M 542.6 100.17 542.55 100.77 543.77 101.21 544.13 101.81 544.72 101.83 545.84 102.14 546.93 102.84 547.73 103.03 548.2 104.29 549.9 104.21 550.64 104.44 550.84 104.93 551.53 105.35 551.15 105.99 551.63 106.36 551.59 107.02 552.68 107.91 551.54 108.12 551.05 108.43 551.69 108.84 551.98 109.44 551.28 109.89 550.48 109.73 550.33 110.64 549.28 111.2 548.89 110.98 548.13 111.12 547.25 110.77 546.03 111.14 546.18 112.47 546.1 113.39 545.86 113.8 545.14 114.2 545.72 114.76 546.59 114.88 546.58 115.28 545.83 115.38 545.28 115.93 545.95 116.49 545.57 117.21 546.43 117.73 547.2 117.79 547.47 118.77 548.16 119.3 547.5 119.7 547.61 120.18 548.1 120.46 548.01 121.19 546.8 121.26 547.05 121.64 547.56 121.44 548.19 121.59 548.42 121.94 550 122.34 550.56 121.84 551.23 121.59 551.94 121.62 552.95 122.26 553.1 123.06 553.57 123.04 554.07 123.87 554.58 124.08 554.72 125.4 555.6 126.13 554.19 127.23 553.56 127.92 554.49 130.28 555.67 132.42 557.54 133.16 557.44 133.67 557.67 134.47 557.99 134.91 557.18 135.05 556.38 134.96 555.48 136.37 555.75 136.69 555.25 137.32 554.45 138.77 553.9 140.21 553.16 140.6 552.73 140.4 551.97 141.33 551.68 141.45 551.05 141.74 549.6 141.17 549.01 140.58 548.51 139.32 548.85 138.88 548.87 138.83 549.02 138.34 548.66 138.04 548.47 138.06 548 137.28 548.11 136.06 548 135.45 547.02 135.18 546.72 134.16 546.2 133.54 545.33 133.02 544.13 133.39 543.86 133.21 544.13 132.45 544.15 132.24 544.16 132.2 544.5 131.3 543.76 130.26 544.02 129.52 544.51 128.56 544.25 128.39 543.93 127.89 542.93 127.48 542.14 127.31 541.66 126.93 541.6 126.73 540.78 126.45 540.84 125.88 540.67 125.57 539.82 125.3 539.79 124.76 539.28 124.58 538.66 124.73 537.74 124.9 537.41 124.06 536.83 124.29 536.73 124.45 536.36 124.3 536.35 123.93 535.81 123.65 534.76 123.07 534.19 122.61 533.95 122.39 533.92 122.37 532.97 122.11 532.39 121.42 532.56 121.14 532.88 120.5 532.97 120.27 532.7 119.26 532.68 119.25 532.66 119.23 532.78 118.99 532.7 118.88 532.06 118.68 531.37 118.6 531.04 118.91 530.8 118.79 530.76 118.79 529.59 118.63 529.37 118.58 529.21 118.49 529.07 118.02 529.05 117.63 528.96 117.39 527.67 117.73 527.47 117.61 527.19 117.46 527.18 117.45 526.98 117.32 526.46 117.31 524.97 116.79 525.16 115.75 525.18 115.29 524.77 114.37 523.79 113.76 523.7 113.78 523.6 113.82 523.46 113.63 523.36 113.59 522.59 113.81 522.18 113.97 521.76 113.94 521.51 113.88 520.95 113.62 520.25 114.03 519.69 114.43 519.49 114.2 519.02 114.08 519.37 113.43 520.31 112.63 521.29 111.08 521.25 110.26 521.7 109.75 522 108.74 522.67 107.77 524.49 105.98 525.04 105.67 526.07 105.48 527.21 104.97 527.47 104.46 530.21 103.38 532.73 102.78 534.1 102.05 534.85 101.89 537.02 100.78 538.38 100.37 539.18 100.34 540.76 99.71 541.48 100 542.6 100.17 Z"/>
<path d="M 521.21 137.24 521.24 137.25 521.62 137.49 522.41 137.46 522.44 137.85 523.77 138.56 524.27 139.2 524.45 139.3 525.36 139.07 525.64 139.35 526.29 139.72 526.3 139.74 526.38 140.02 526.32 140.31 526.85 140.89 526.89 141.51 526.45 142.09 526.14 142.77 526.11 142.87 525.77 143.63 525.39 143.97 525.03 143.76 525.18 144.08 526.17 144.63 526.71 145.27 526.52 145.85 526.49 146.3 525.67 146.71 526.08 148.37 526.05 148.56 527.12 148.41 527.37 148.59 528.08 148.79 528.97 148.42 529.3 148 529.93 147.83 531.15 147.99 531.78 147.58 532.11 147.96 533.1 148.24 533.73 148.23 534.35 147.91 535.04 148.09 535.71 147.96 536.12 147.61 537.17 147.35 537.81 147.92 537.73 148.77 537.85 148.89 538.69 149.49 538.79 149.49 539.39 150.19 539.56 150.78 539.92 151.17 540.62 151.38 540.9 152.89 540.69 153.15 540.69 153.36 540.59 154.37 539.99 154.38 539.51 154.76 539.49 155.89 538.79 156.54 538.53 157.61 537.13 157.73 536.91 156.67 535.86 156.6 535.84 156.96 535.31 157.77 534.77 157.82 534.1 158.38 533.57 159.41 532.11 159.62 531.46 159.49 530.69 160.3 530.45 160.88 529.98 161.31 529.94 161.76 529.42 161.92 528.93 161.73 528.43 162.23 527.21 162.78 526.81 162.28 526.17 162.41 525.56 162.93 524.75 163.35 524.51 164.24 523.97 164.52 523.19 164.38 522.73 163.79 521.84 163.27 521.56 162.58 520.8 161.66 519.73 161.83 519.02 161.35 518.27 161.54 517.31 161.41 517.05 161.08 515.93 161.1 515.39 160.8 513.94 161.36 514.36 163.88 513.52 164.63 512.96 164.77 510.64 164.56 509.26 165.01 507.41 164.9 506.76 164.41 506.15 163.58 505.21 162.91 503.51 162.72 501.53 161.92 499.33 160.1 497.53 159.63 496.33 158.81 495.83 157.98 495.18 157.57 494.11 156.15 492.94 155.59 492.49 155.01 492.23 154.16 491.37 153.36 490.84 153.18 491.58 152.61 492.55 151.43 493.71 150.28 494.43 149.02 495.2 147.37 495.76 146.83 496.44 144.68 497.05 143.69 497.26 142.63 497.72 141.39 498.19 140.61 499.3 139.84 499.94 139.05 500.54 138.98 501.33 138.22 501.47 137.43 501.93 136.84 502.94 135.92 503.89 135.44 505.51 135.11 506.58 135 507.33 134.24 509.17 132.66 509.58 131.17 510.61 129.86 511.12 130.25 511.99 130.28 512.02 130.29 512.03 130.3 512.39 130.25 513.06 129.68 513.62 130.54 513.88 131.17 513.69 131.51 514.16 131.54 515.01 131.67 515.88 132.28 516.37 131.98 516.76 132.38 517.39 132.13 518.38 131.93 518.32 132.67 518.39 132.98 517.81 133.54 518.02 134.07 518.58 134.18 518.64 134.92 519.09 135.19 519.31 135.54 519.57 135.75 520.47 136.39 521.07 136.31 521.28 136.41 521.27 136.48 521.26 136.51 521.15 136.65 521.13 136.97 521.21 137.24 Z"/>
<path d="M 477.2 225.33 477.65 225.51 478.38 226.7 478.97 226.74 479.23 226.22 479.99 226.34 480.08 227.14 480.35 227.39 481.32 227.48 481.69 228.41 482.03 228.72 480.91 230.45 480.48 230.48 479.51 229.73 478.85 229.76 477.97 230.44 477.62 231.07 476.58 231.48 476.23 230.75 475.84 230.47 475.77 229.8 474.67 229.86 474.36 229.51 473.03 229.69 473.42 229.02 473.39 228.48 472.97 228.13 473.07 227.48 472.65 226.86 473.42 226.85 473.78 226.46 474.42 226.83 474.78 226.34 475.44 226.25 476.03 225.7 476.78 225.69 477.2 225.33 Z"/>
<path d="M 499.37 218.08 499.76 218.18 501.1 217.77 501.99 217.97 503.18 218.8 504.07 218.86 504.38 219.15 505.06 219.19 505.87 218.86 506.63 219.93 506.31 220.9 506.4 221.85 505.88 222.37 505.47 223.17 505.45 223.92 506.2 224.92 506.59 225.9 506.57 226.84 506.9 228.06 507.33 228.73 507.83 229.01 509.76 228.83 510.5 229.22 511.1 229.29 511.6 228.66 513.97 228.66 515.01 229.05 515.57 228.87 516.32 229.33 517.11 229.14 516.54 229.51 515.76 229.64 514.82 230.14 513.6 230 513.05 230.42 512.35 230.6 511.59 231.82 510.39 232.26 509.81 232.71 509.05 232.78 508.63 233.05 508.65 233.57 508.28 233.94 507.51 235.54 507.2 235.63 507.01 236.54 506.44 236.89 506.02 236.82 505.15 237.14 503.88 238.27 503.47 239.1 501.5 238.94 501.53 239.63 500.7 240.69 499.48 241.32 499.35 241.96 497.91 241.72 497.3 242.25 497.23 243.23 496.92 243.62 496.45 243.61 494.72 243.19 494.4 242.87 493.62 242.78 493.2 243.09 492.55 242.71 492.43 243.34 492.51 244.28 492.14 244.84 492.42 245.78 492.92 246.37 493.11 247.26 493 247.99 493.31 248.31 492.8 248.11 491.34 247.93 489.89 248.45 488.89 247.9 488.65 247.14 488.08 248.34 487.45 249.04 486.41 248.59 485.6 248.85 484.55 248.05 483.4 247.81 482.8 247.16 483.65 246.48 483.59 245.69 483.04 244.44 483.02 243.35 483.34 243.01 483.07 241.47 483.77 241 484.44 240.22 483.97 239.61 482.52 238.98 481.91 239.04 481.59 238.41 482.27 238.05 482.28 237.72 481.68 237.01 479.98 236.8 480.16 236.12 481.24 235.53 480.6 234.93 479.7 235.55 479.28 234.79 477.82 234.06 476.48 233.53 475.95 233.97 475.31 234.08 474.22 233.61 473.2 234 472 234.31 469.53 234.48 469.02 234.84 468.25 235.69 467.35 235.86 467.05 235.48 466.52 235.71 466.51 236.5 465.11 236.51 464.38 237.57 464.57 238.48 463.8 238.63 463.61 238.3 462.97 238.32 462.58 238.92 463.08 239.22 462.15 240.01 461.36 240.31 460.81 240.29 460.28 241.13 459.86 242.15 459.47 242.72 458.96 243 458.17 243.04 457.18 242.38 456.16 243.05 455.56 242.05 455.19 241.74 453.81 241.27 453.8 240.86 452.53 240.08 451.42 239.26 451.57 238.62 452.2 237.43 452.51 236.44 452.48 235.77 454.53 235.69 454.83 235 454.7 234.1 453.87 234.1 453.88 232.79 453.57 232.34 453.9 231.3 453.89 230.33 453.13 230.61 452.7 230.35 453.5 229.91 453.54 228.94 454.37 228 454.53 227.14 452.63 227.68 451.94 227.64 451.53 227.11 451.49 225.58 452.14 225.17 453.33 225.39 453.59 225.13 454.56 225.51 455.22 225.41 456.34 225.98 457.45 225.77 458.22 225.83 459.63 226.42 460.89 226.15 461.48 225.67 461.12 223.73 461.3 223.29 462.22 223.15 462.8 224.13 463.46 224.35 463.81 223.35 464.95 222.75 464.82 221.97 465.47 221.71 466.48 221.71 466.18 221.16 466.59 220.89 467.25 221.09 468.25 220.56 468.29 219.57 470.09 219.4 470.81 218.7 470.86 218.32 471.9 218.15 472.43 217.29 473.69 216.82 475.2 217.42 476.7 216.9 476.94 216.55 477.82 216.85 478.23 216.63 479.64 216.37 480.2 216.53 481.27 216.19 481.77 216.28 481.81 216.89 482.68 218.06 484.2 219.34 485.73 219.49 485.83 219.77 486.86 219.87 487.31 220.22 488.26 220.06 489.9 220.29 490.62 220.17 491.1 219.66 491.53 219.72 492.7 219.44 492.97 220.28 492.53 220.63 493.11 221.09 494.67 220.61 495.1 221.22 496.49 220.77 497.29 220.89 498.36 221.35 499.48 220.73 499.61 220.13 499.3 219.44 499.5 219.14 498.88 218.64 499.37 218.08 Z M 477.2 225.33 476.78 225.69 476.03 225.7 475.44 226.25 474.78 226.34 474.42 226.83 473.78 226.46 473.42 226.85 472.65 226.86 473.07 227.48 472.97 228.13 473.39 228.48 473.42 229.02 473.03 229.69 474.36 229.51 474.67 229.86 475.77 229.8 475.84 230.47 476.23 230.75 476.58 231.48 477.62 231.07 477.97 230.44 478.85 229.76 479.51 229.73 480.48 230.48 480.91 230.45 482.03 228.72 481.69 228.41 481.32 227.48 480.35 227.39 480.08 227.14 479.99 226.34 479.23 226.22 478.97 226.74 478.38 226.7 477.65 225.51 477.2 225.33 Z"/>
<path d="M 305.16 151.92 306.04 152.21 306.75 152.73 306.53 154.13 305.24 154.64 304.96 155.21 303.87 155.34 303.37 155.94 302.48 155.17 302.65 154.14 303.2 153.47 303.73 152.26 304.58 151.95 305.16 151.92 Z M 317.87 145.99 319.28 146.37 319.78 147.38 320.95 147.73 320.87 148.14 321.35 148.83 321.34 149.19 321.84 149.74 322.17 151.55 322.95 152.16 322.65 153.11 322.17 153.05 321.73 153.4 322.19 153.86 321.37 154.94 320.77 155.12 319.79 155.7 319.08 155.77 319.57 155.04 319.14 154.46 317.81 154.1 317.19 153.6 315.88 153.58 314.86 153.84 313.38 154.53 312.39 155.65 311.84 157.03 311.01 157.43 309.98 157.13 309.54 156.66 308.94 156.68 308.38 155.95 307.45 155.31 307.67 155 308.45 154.86 309.34 153.5 309.33 152.72 308.82 151.95 308.8 151.45 308.09 150.48 308.6 149.3 309.75 148.84 310.58 149.04 311.62 150.15 313.11 150.73 314.1 150.72 315.35 149.68 315.87 149.01 315.74 147.87 316.37 147.6 316.74 146.98 317.87 145.99 Z M 401.03 110.48 401 111.14 400.37 110.76 401.03 110.48 Z M 399.8 110.21 398.96 110.36 398.74 109.42 399.6 109.78 399.8 110.21 Z"/>
<path d="M 185.27 445.09 186.46 445.59 186.41 446.06 185.71 445.89 185.27 445.09 Z M 521.62 231.81 522.21 232.64 522.72 232.8 522.46 234.35 521.58 234.85 521.06 234.85 520.52 235.23 521.03 235.78 520.44 235.96 519.5 236.87 519.42 237.81 520.43 237.98 521.02 238.33 521.24 238.82 522 238.46 522.37 239.28 523.28 239.78 523.51 240.12 524.2 240.38 524.06 241.69 522.92 242.12 522.65 242.63 522.29 242.9 521.27 242.97 519.34 243.94 518.79 243.79 518.1 243.92 517.16 245.11 515.57 246.71 514.73 246.74 513.81 247.29 513.52 248 513.52 249.43 513.12 249.81 513.11 250.49 513.58 251.26 512.48 252.09 512.21 253.3 511.61 253.5 510.77 254.07 511.48 254.56 511.66 255.21 511.43 256.49 511.78 257.24 511.76 258.01 511.24 259.36 510.89 259.76 510.68 260.51 510.2 261.19 511.14 262.42 511 263.17 509.74 263.35 509.53 265.25 508.77 265.48 508.85 265.89 508.08 266.57 508 267.13 507.3 267.44 507.14 268.23 506.42 268.93 506.72 269.6 506.48 270.17 506.5 270.96 506.86 271.47 507.38 272.74 507.01 273.3 507.77 274.49 508.07 275.17 508.86 275.42 509.45 275.4 509.86 275.88 509.6 276.72 510.21 276.99 509.83 278.16 508.94 277.02 508.47 277.46 507.98 276.8 507.37 276.34 506.58 276.38 505.86 277.02 504.86 277.53 504.26 277.46 504.23 278.22 503.11 278.77 501.96 277.67 501.82 277.08 501.28 276.48 500.81 276.39 500.3 275.77 499.38 275.56 498.91 275.2 497.31 275.22 496.22 276.45 495.33 276.6 495.13 277.05 493.9 276.86 493.67 275.29 492.92 275.49 492.65 274.86 490.75 275.61 489.59 275.8 488.76 276.55 487.16 277.76 486.52 278.53 485.55 279.27 484.16 279.24 483.14 278.95 482.09 279.3 481.57 279.04 479.45 278.54 478.86 279.13 478.75 280.32 478.49 281.5 477.98 282.66 477.72 283.78 477.69 284.54 477.86 286.96 477.84 287.9 477.48 289.51 477.2 290.27 476.82 290.56 476.35 292.09 476.28 294.79 476.12 295.8 476.42 296.61 477.06 297.27 477.16 298.26 476.82 300.12 476.34 301.28 475.93 301.51 475.27 303.56 475.5 305.14 475.35 306.57 475.39 307.45 473.63 307.04 471.39 305.69 470.03 304.67 469.64 304.25 468.3 303.33 468.27 302.75 466.63 303.84 465.14 301.99 465.42 301.8 465.95 302.44 466.25 302.23 466.97 303.1 467.37 302.83 466.24 301.46 465.58 301.29 465.88 300.48 464.54 298.91 463.96 298.4 462.82 297.03 462.97 296.33 462.23 295.78 462.79 295.29 462.22 294.34 461.74 293.21 461.84 292.33 462.88 291.29 462.7 289.49 462.24 288 461.72 287.12 461.24 285.97 460.37 284.46 460.35 284.15 458.8 280.93 457.67 281.12 457.31 280.94 457.09 280.33 458.3 279.95 457.76 278.12 457.24 277.01 457.06 275.8 455.86 272.92 455.86 272.79 457.21 272.04 457.97 272.47 458.46 272.51 459.41 272.95 459.98 272.39 460.31 272.5 460.43 273.28 461.19 273.43 461.56 273.84 462.25 274.17 462.57 273.57 463.64 274.07 464.05 273.99 463.93 273.36 464.45 273.33 465.92 273.67 466.88 273.77 467.16 274.09 467.77 273.82 468.2 274.54 469.19 274.53 469.86 274.29 470.31 273.59 471.32 273.08 471.72 272.28 472.11 272.09 473.4 271.96 474.24 272.62 474.77 272.42 475.7 270.54 476.06 269.32 477.02 267.48 477.64 267.55 477.81 266.57 478.29 266.02 478.24 265.57 479.61 265.6 479.95 264.66 481.6 263.64 481.98 263.15 483.16 262.15 483.67 261.5 485.57 260.49 485.9 259.98 486.71 259.28 487.1 258.47 488.2 256.93 488.23 256.23 489.22 254.6 490.06 254.01 490.43 253.11 491.96 252.18 492.27 251.53 491.99 251 492.52 249.97 493.15 249.57 493.53 248.85 493.31 248.31 493 247.99 493.11 247.26 492.92 246.37 492.42 245.78 492.14 244.84 492.51 244.28 492.43 243.34 492.55 242.71 493.2 243.09 493.62 242.78 494.4 242.87 494.72 243.19 496.45 243.61 496.92 243.62 497.23 243.23 497.3 242.25 497.91 241.72 499.35 241.96 499.48 241.32 500.7 240.69 501.53 239.63 501.5 238.94 503.47 239.1 503.88 238.27 505.15 237.14 506.02 236.82 506.44 236.89 507.01 236.54 507.2 235.63 507.51 235.54 508.28 233.94 508.65 233.57 508.63 233.05 509.05 232.78 509.81 232.71 510.39 232.26 511.59 231.82 512.35 230.6 513.05 230.42 513.6 230 514.82 230.14 515.76 229.64 516.54 229.51 517.11 229.14 517.82 228.97 518.79 229.15 520.41 229.72 521.09 229.72 521.67 230.54 521.26 230.94 521.62 231.81 Z"/>
<path d="M 568.3 348.59 568 348.6 567.73 347.85 568.54 347.65 568.63 348.46 568.3 348.59 Z M 559.92 337.49 560.6 337.83 563.63 337.66 564.24 337.84 564.75 337.53 565.1 339.06 564.55 339.9 564.88 340.93 565.71 341.59 567.1 342.15 567.61 342.67 566.84 343.98 566.4 344.14 565.89 343.83 565.02 343.81 564.98 343.44 564.43 342.77 563.38 342.11 562.58 342.22 560.4 340.25 560.23 339.67 560.39 339.17 560.23 338.63 559.5 337.82 559.92 337.49 Z M 558.89 291.12 559.04 291.3 560.34 291.15 560.24 292.96 559.72 293.09 559.52 293.59 559.91 294.18 559.18 294.63 558.45 293.73 557.48 293.54 557.62 292.58 556.84 291.66 556.87 291.2 557.98 291.38 558.89 291.12 Z M 559.25 231.86 558.75 232.68 558.31 233.74 558.15 234.79 557.59 235.63 557.38 236.81 557.49 237.38 557.38 238.3 557.02 238.84 557.03 239.91 556.58 241.42 555.96 241.35 555.41 241.71 554.72 242.86 554.3 243.33 553.88 244.54 553.87 245.07 553.36 245.72 553.36 246.31 552.89 247.5 553.32 248.17 552.42 249.21 551.58 249.61 551.45 250.55 551.67 251.55 552.01 251.89 552.32 253.18 551.81 254.45 551.71 255.31 552.06 255.92 552.6 256.18 552.28 256.81 551.35 257 550.77 257.66 550.39 258.41 549.08 258.35 548.56 258.92 548.21 259.65 548.34 260.11 547.76 260.66 547.52 261.74 546.94 263.21 546.75 264.37 546.15 264.69 546.12 265.16 545.62 265.74 545.76 266.36 545.19 267.35 543.53 269.43 543.23 269.36 542.47 270.16 542.25 271.23 541.45 272.83 541.07 273.07 539.76 275.17 539.2 275.3 538.91 276.21 538.59 276.51 538.08 276.28 536.79 276.59 535.41 277.64 535.1 279.24 535.49 279.54 535.88 280.33 536.16 281.84 535.7 282.27 535.13 282.26 534.62 282.87 534.28 284.65 533.42 285.35 532.7 285.65 531.78 286.66 531.14 287.08 530.45 287.84 528.34 288.95 527.66 289.09 526.8 289.49 525.46 290.76 524.76 291.22 523.51 291.67 522.71 292.41 522.17 293.32 521.41 295.65 521.15 298.04 520.27 298.89 519.3 299.57 518.64 300.77 517.95 302.9 517.25 304.63 516.87 306.13 516.08 308.77 515.08 311.23 514.58 312.12 514.33 312.95 513.77 314.01 513.3 316.02 512.81 316.54 512.21 317.94 511.97 320.02 511.97 322.41 512.31 324.84 511.36 325.3 510 326.14 509.37 325.28 508.76 325.06 507.86 325.06 507.33 324.78 506.81 324.04 505.99 323.53 504.76 324 504.48 323.16 504.64 322.49 505.31 322.44 505.21 321.9 504.26 321.77 503.89 321.12 503.04 320.81 503.07 319.99 503.77 319.93 504.53 319.22 504.28 318.81 504.19 317.86 503.61 317.09 502.89 316.84 502.27 316.94 501.9 316.04 501.06 315.91 500.36 315.39 500.67 315.06 501.06 313.45 501.46 312.98 501.5 312.44 502.04 312.13 502.48 312.29 503.24 312.09 503.97 311.44 503.75 310.86 502.83 309.36 502.94 309 502.08 308.69 501.5 308.25 500.99 308.26 501.21 307.16 500.99 306.59 501.45 306.42 501.54 305.91 501.95 305.69 501.86 304.92 501.17 304.16 500.87 302.34 500.05 300.98 500.21 299.63 500.71 299.44 500.8 298.85 500.54 298.09 501.24 297.05 501.09 296.23 501.75 294.83 502.25 294.35 503.71 292.25 503.7 291.54 504.12 290.98 503.74 289.92 504.6 290.2 506.26 290.07 506.34 289.7 507.66 289.58 507.93 288.83 508.59 288.02 510.19 288.1 511.31 288.02 512.19 286.41 512.26 284.99 512.1 284.13 512.63 283.92 512.91 283.42 512.74 282.5 512.86 281.54 511.92 280.62 510.82 280.5 510.15 280.21 509.87 279.59 509.83 278.16 510.21 276.99 509.6 276.72 509.86 275.88 509.45 275.4 508.86 275.42 508.07 275.17 507.77 274.49 507.01 273.3 507.38 272.74 506.86 271.47 506.5 270.96 506.48 270.17 506.72 269.6 506.42 268.93 507.14 268.23 507.3 267.44 508 267.13 508.08 266.57 508.85 265.89 508.77 265.48 509.53 265.25 509.74 263.35 511 263.17 511.14 262.42 510.2 261.19 510.68 260.51 510.89 259.76 511.24 259.36 511.76 258.01 511.78 257.24 511.43 256.49 511.66 255.21 511.48 254.56 510.77 254.07 511.61 253.5 512.21 253.3 512.48 252.09 513.58 251.26 513.11 250.49 513.12 249.81 513.52 249.43 513.52 248 513.81 247.29 514.73 246.74 515.57 246.71 517.16 245.11 518.1 243.92 518.79 243.79 519.34 243.94 521.27 242.97 522.29 242.9 522.65 242.63 523.47 242.35 523.8 242.69 524.84 243.16 525.29 244.02 525.31 245.08 525.91 246.41 526.97 247.65 527.66 247.58 528.16 248.03 528.95 248.39 530.16 248.27 530.55 248.41 531.23 249.6 531.37 250.11 532.53 250.3 533.02 249.76 534.17 249.43 535.26 249.94 535.94 251.13 536.01 252.18 536.88 253.37 537.02 254.51 538.51 254.99 539.09 255.81 539.94 255.6 540.6 256.02 541.33 256.93 541.11 257.74 542.23 257.97 542.68 257.54 544.17 257.18 545.15 257.23 545.62 256.7 545.7 256.19 545.5 255.1 545.81 254.22 545.27 253.02 545.62 252.62 545.77 251.92 546.64 251.96 546.85 251.12 547.57 249.51 547.55 248.89 548.31 248.42 548.02 247.78 548.72 246.56 548.56 246.1 550 244.78 549.87 242.74 549.99 242.35 550.78 241.57 550.97 240.79 551.55 240.71 551.98 239.57 552.49 238.81 553.47 238.1 553.51 237.71 552.21 237.28 551.73 235.74 552.55 234.66 553.29 233.26 553.26 233.06 554.34 232.01 554.94 231.91 555.33 231.17 556.58 231.48 557.46 231.4 557.98 232.15 558.82 231.82 559.25 231.86 Z"/>
<path d="M 581 162.96 580.64 163.95 579.39 165.08 578.97 165.73 578.65 167.19 577.42 168.41 576.53 168.63 575.68 169.98 574.91 170.36 574.11 170.97 573.02 171.53 572.33 172.44 572.05 173.23 571.95 174.18 572.4 175.47 572.47 176.64 572.37 177.11 571.69 178.12 569.6 179.6 568.87 180.62 568.64 181.48 568.67 182.82 569 183.85 569.77 185.26 570.79 186.11 571.13 186.93 570.62 187.71 570.1 188.83 570.12 189.21 569.59 190.02 569.11 189.36 568.62 189.73 568 190.75 567.92 191.33 568.31 192.85 567.78 194.61 567.82 195.5 567.24 198.82 566.9 199.79 566.27 200.99 566.08 201.73 565.54 202.43 565.22 203.44 565.09 204.66 565.22 206.68 564.8 207.77 564.06 209.05 563.64 209.33 563.41 210.18 563.45 210.87 563.73 211.24 563.17 213.04 562.98 214.55 562.36 215.36 562 216.86 561.9 219.23 561.27 221.51 560.44 222.73 559.97 224.45 559.83 225.39 560.1 227.15 560.64 227.76 560.19 228.97 559.88 229.22 559.54 230.19 559.25 231.86 558.82 231.82 557.98 232.15 557.46 231.4 556.58 231.48 555.33 231.17 554.94 231.91 554.34 232.01 553.26 233.06 553.29 233.26 552.55 234.66 551.73 235.74 552.21 237.28 553.51 237.71 553.47 238.1 552.49 238.81 551.98 239.57 551.55 240.71 550.97 240.79 550.78 241.57 549.99 242.35 549.87 242.74 550 244.78 548.56 246.1 548.72 246.56 548.02 247.78 548.31 248.42 547.55 248.89 547.57 249.51 546.85 251.12 546.64 251.96 545.77 251.92 545.62 252.62 545.27 253.02 545.81 254.22 545.5 255.1 545.7 256.19 545.62 256.7 545.15 257.23 544.17 257.18 542.68 257.54 542.23 257.97 541.11 257.74 541.33 256.93 540.6 256.02 539.94 255.6 539.09 255.81 538.51 254.99 537.02 254.51 536.88 253.37 536.01 252.18 535.94 251.13 535.26 249.94 534.17 249.43 533.02 249.76 532.53 250.3 531.37 250.11 531.23 249.6 530.55 248.41 530.16 248.27 528.95 248.39 528.16 248.03 527.66 247.58 526.97 247.65 525.91 246.41 525.31 245.08 525.29 244.02 524.84 243.16 523.8 242.69 523.47 242.35 522.65 242.63 522.92 242.12 524.06 241.69 524.2 240.38 523.51 240.12 523.28 239.78 522.37 239.28 522 238.46 521.24 238.82 521.02 238.33 520.43 237.98 519.42 237.81 519.5 236.87 520.44 235.96 521.03 235.78 520.52 235.23 521.06 234.85 521.58 234.85 522.46 234.35 522.72 232.8 522.21 232.64 521.62 231.81 522.5 231.52 523.05 231.02 524.5 230.59 525.05 229.74 523.48 228.76 524.24 228.11 524.56 227.26 525.29 226.8 525.6 226.28 525.79 225.31 526.9 225.6 527.64 225.59 528.06 225.06 528.54 225.27 529.85 225.11 531.04 225.56 531.25 225.14 531.93 224.63 531.92 224.09 532.23 223.17 531.98 222.61 532.26 222.07 532.73 222.09 532.98 221.45 532.32 220.97 532.43 219.96 533.68 219.98 534.42 220.25 534.5 219.71 535.25 219.34 535.65 218.89 536.57 219.26 537.11 218.92 537.43 217.78 538.01 216.83 537.98 215.87 538.45 215.18 538.58 214.4 538.85 214.13 538.9 213.41 538.63 212.96 539.16 212.14 539.3 210.4 539.15 209.77 538.68 208.84 538.4 208.74 538.33 207.64 538.62 207.15 537.76 206.98 537.11 206.6 536.5 205.54 538.3 204.44 538.07 203.42 538.24 202.61 538.78 202.33 539.19 200.07 539.91 199.2 540.22 198 541.43 196.73 541.2 196.14 541.26 194.89 541.94 194.87 542.07 193.64 541.72 192.47 541.97 190.73 542.17 190.31 541.81 189.56 541.15 189.56 540.9 189.1 540.78 188.23 541.51 187.14 542.05 186.05 542.07 185.71 542.79 184.52 542.59 183.39 543.55 182.64 543.82 182.81 544.54 181.9 545.71 180.99 545.4 180.17 545.88 179.66 546.13 178.68 545.15 178.52 544.18 177.88 543.58 177.27 542.45 177 542.7 175.73 542.95 175.33 542.97 173.73 544.34 173.54 545.16 173.11 545.92 172.28 546.7 172.05 547.79 171.96 547.65 171 547.27 170.14 547.97 169.32 548.02 168.55 548.65 168.54 549.15 167.9 550.56 167.67 550.61 166.97 550.2 165.76 551.94 164.47 552.15 163.51 553.55 163.51 553.77 163.06 554.46 162.39 554.27 161.84 554.51 160.46 554.98 159.57 555.8 159.1 556.81 159.81 558.42 160.37 559.4 161.09 559.89 160.8 560.34 160.94 561.29 160.79 561.72 161.09 562.72 161.35 563.05 161.2 563.94 161.72 564.25 162.39 565 162.75 565.49 162.62 566.4 162.9 566.89 162.87 567.93 163.17 567.11 161.96 567.33 161.55 567.97 161.4 568.61 161.56 568.96 160.61 569.46 161.37 569.96 161.42 570.12 160.37 569.52 160.29 569.08 159.68 569.08 158.94 569.8 158.64 571.2 160.29 571.15 159.59 573.17 160.76 573.32 161.23 573.95 160.97 574.38 161.53 574.99 161.48 576.32 162.07 577.38 162.12 578.7 162.37 579.83 163.05 580.69 163.13 581 162.96 Z"/>
<path d="M 398.38 248.56 398.87 248.61 398.54 249.68 397.51 250.74 397.09 250.88 396.85 249.97 396.18 249.37 396.53 248.85 398.38 248.56 Z M 412.15 246.03 412.57 246.58 412.19 246.81 411.56 246.22 412.15 246.03 Z M 416.94 245.22 417 245.81 416.55 246.28 416.09 246.3 416.1 245.42 416.94 245.22 Z M 405.96 236.51 406.39 237.14 405.66 237.16 405.16 236.85 405.96 236.51 Z M 402.57 234.8 402.87 235.32 403.69 235.33 403.64 238.19 403.2 238.06 402.33 238.25 402.01 237.98 402.63 237.29 402.45 235.98 402.74 235.58 402.57 234.8 Z M 388.95 233.67 389.58 234.52 388.56 234.6 388.95 233.67 Z M 406.28 227.06 405.31 227.8 404.41 227.89 404.74 227.34 405.35 227.08 406.28 227.06 Z M 409.65 212.94 409.9 213.22 410.54 213.16 411.16 213.54 411.11 213.89 411.85 214.81 411.18 215.06 410.82 216.09 411.35 217.29 411.91 217.34 411.66 218.11 411.92 218.77 412.85 218.9 413.07 219.27 412.76 219.96 413.14 220.47 413.57 219.64 414.8 218.63 416.21 219.62 416.48 219 417.19 220.08 417.19 221.05 417.67 221.89 418.23 222.4 417 222.74 416.84 222.08 414.53 222.02 414.14 222.21 413.65 223.05 413.19 223.02 411.9 223.86 411.23 224.79 411.51 226.04 410.06 225.76 409.64 226.03 408.68 226.08 408.85 225.37 408.32 224.73 407.52 224.92 406.81 223.66 406.3 223.38 406.8 222.71 407.03 223.57 408.11 224.43 408.68 224.25 408.86 225.2 410.91 223.62 410.88 222.85 410.01 222.74 408.77 223.14 407.98 222.73 408.98 222.46 409.28 221.79 408.87 221.44 408.28 221.86 407.73 221.9 407.81 221.18 408.24 221.01 408.07 220.04 409.07 220.02 409.53 220.24 409.75 220.99 410.19 220.92 410.67 221.36 410.9 220.76 410.76 220.28 411.4 220.09 411.44 219.53 411.12 218.88 411.28 218.21 410.69 217.71 411.31 217.36 410.15 216.62 410.56 216.23 410.4 215.68 409.51 214.81 409.14 214.04 408.34 214.24 407.97 214.85 407.29 214.46 406.37 215.56 406.43 215.96 406.2 216.27 405.39 216.57 404.76 216.48 404.44 216.83 404.71 217.3 404.65 218.19 404.87 218.79 404.57 219.37 404.05 219.52 404.34 220.08 404 220.53 404.24 221.74 402.89 221.42 402.26 221.85 401.46 221.74 401.22 222.08 400.55 221.79 401.33 221.35 401.76 220.85 402.55 221.24 403.29 220.62 403.42 220.03 403.07 219.55 402.26 219.3 402.49 218.91 403.24 218.78 403.74 217.89 403 217.36 403.4 216.93 403.23 216.51 403.65 216.09 403.97 215.2 404.46 214.66 404.96 214.92 404.57 215.44 405.49 215.87 406.21 215.76 406.87 214.91 407.28 214.42 407.05 214.01 407.38 213.57 408.54 213.37 409.65 212.94 Z M 411.85 206.72 412.48 207.21 412.74 207.7 411.85 207.84 410.9 208.39 410.68 207.83 411.2 207.54 411.51 206.78 411.85 206.72 Z"/>
<path d="M 515.38 131.87 515.01 131.67 514.16 131.54 513.69 131.51 513.88 131.17 513.62 130.54 513.06 129.68 512.39 130.25 512.03 130.3 512.02 130.29 511.99 130.28 511.12 130.25 510.61 129.86 511.24 129.22 512.07 128.06 511.99 125.67 512.3 124.97 512.37 124.31 512.82 123.15 513.84 121.82 513.92 121.22 514.58 120.75 515.77 121.12 516.11 121.82 516.93 122.35 518.44 122.69 518.98 122.59 519.47 123.03 520.46 123.31 521.85 124.46 522.23 125.37 522.38 126.6 522.75 126.88 522.96 128.03 522.06 128.43 521.49 127.31 520.11 126.6 519.25 126.91 519.52 127.5 518.82 127.91 518.07 127.76 517.88 128.44 516.82 129.46 516.22 129.32 515.59 130.71 515.63 131.56 515.38 131.87 Z"/>
<path d="M 523.46 113.63 523.6 113.82 523.7 113.78 523.79 113.76 524.77 114.37 525.18 115.29 525.16 115.75 524.97 116.79 526.46 117.31 526.98 117.32 527.18 117.45 527.19 117.46 527.47 117.61 527.67 117.73 528.96 117.39 529.05 117.63 529.07 118.02 529.21 118.49 529.37 118.58 529.59 118.63 530.76 118.79 530.8 118.79 531.04 118.91 531.37 118.6 532.06 118.68 532.7 118.88 532.78 118.99 532.66 119.23 532.68 119.25 532.7 119.26 532.97 120.27 532.88 120.5 532.56 121.14 532.39 121.42 532.97 122.11 533.92 122.37 533.95 122.39 534.19 122.61 534.76 123.07 535.81 123.65 536.35 123.93 536.36 124.3 536.73 124.45 536.83 124.29 537.41 124.06 537.74 124.9 538.66 124.73 539.28 124.58 539.79 124.76 539.82 125.3 540.67 125.57 540.84 125.88 540.78 126.45 541.6 126.73 541.66 126.93 542.14 127.31 542.93 127.48 543.93 127.89 544.25 128.39 544.51 128.56 544.02 129.52 543.76 130.26 544.5 131.3 544.16 132.2 544.15 132.24 544.13 132.45 543.86 133.21 544.13 133.39 545.33 133.02 546.2 133.54 546.72 134.16 547.02 135.18 548 135.45 548.11 136.06 548 137.28 548.47 138.06 548.66 138.04 549.02 138.34 548.87 138.83 548.85 138.88 548.51 139.32 549.01 140.58 549.6 141.17 551.05 141.74 551.68 141.45 552.22 141.84 552.25 141.89 552.47 142.19 552.47 142.2 552.68 142.79 552.04 143.11 551.83 143.55 551.69 143.72 551.31 144.16 551.63 144.74 551.47 145.39 551.86 146.22 551.13 146.6 551.11 146.61 550.95 146.79 550.59 147.4 550.16 147.75 549.96 147.74 549.64 147.73 549.43 148.68 548.99 148.83 548.43 149.55 548.1 149.63 547.48 149.73 546.72 151.06 546.22 151.4 545.54 152.48 545.28 153.09 544.35 153.78 543.42 153.83 543.38 153.89 542.59 153.96 542.09 154.04 541.55 154.19 540.76 154.03 540.69 153.15 540.9 152.89 540.62 151.38 539.92 151.17 539.56 150.78 539.39 150.19 538.79 149.49 538.69 149.49 537.85 148.89 537.73 148.77 537.81 147.92 537.17 147.35 536.12 147.61 535.71 147.96 535.04 148.09 534.35 147.91 533.73 148.23 533.1 148.24 532.11 147.96 531.78 147.58 531.15 147.99 529.93 147.83 529.3 148 528.97 148.42 528.08 148.79 527.37 148.59 527.12 148.41 526.05 148.56 526.08 148.37 525.67 146.71 526.49 146.3 526.52 145.85 526.71 145.27 526.17 144.63 525.18 144.08 525.03 143.76 525.39 143.97 525.77 143.63 526.11 142.87 526.14 142.77 526.45 142.09 526.89 141.51 526.85 140.89 526.32 140.31 526.38 140.02 526.3 139.74 526.29 139.72 525.64 139.35 525.36 139.07 524.45 139.3 524.27 139.2 523.77 138.56 522.44 137.85 522.41 137.46 521.62 137.49 521.24 137.25 521.21 137.24 521.13 136.97 521.15 136.65 521.26 136.51 521.27 136.48 521.28 136.41 521.07 136.31 520.47 136.39 519.57 135.75 519.31 135.54 519.09 135.19 518.64 134.92 518.58 134.18 518.02 134.07 517.81 133.54 518.39 132.98 518.32 132.67 518.38 131.93 517.39 132.13 516.76 132.38 516.37 131.98 515.88 132.28 515.38 131.87 515.63 131.56 515.59 130.71 516.22 129.32 516.82 129.46 517.88 128.44 518.07 127.76 518.82 127.91 519.52 127.5 519.25 126.91 520.11 126.6 521.49 127.31 522.06 128.43 522.96 128.03 522.75 126.88 522.38 126.6 522.23 125.37 521.85 124.46 520.46 123.31 519.47 123.03 518.98 122.59 518.44 122.69 516.93 122.35 516.11 121.82 515.77 121.12 514.58 120.75 514.78 120.38 515.68 119.78 516.25 118.88 516.72 117.57 517.21 116.99 518.06 114.98 519.02 114.08 519.49 114.2 519.69 114.43 520.25 114.03 520.95 113.62 521.51 113.88 521.76 113.94 522.18 113.97 522.59 113.81 523.36 113.59 523.46 113.63 Z"/>
<path d="M 471.89 316.27 472.62 316.78 472.47 317.38 471.66 317.85 470.93 318.59 470.34 318.91 469.85 318.35 470.61 317.52 470.42 317.05 470.93 316.57 471.89 316.27 Z M 509.83 278.16 509.87 279.59 510.15 280.21 510.82 280.5 511.92 280.62 512.86 281.54 512.74 282.5 512.91 283.42 512.63 283.92 512.1 284.13 512.26 284.99 512.19 286.41 511.31 288.02 510.19 288.1 508.59 288.02 507.93 288.83 507.66 289.58 506.34 289.7 506.26 290.07 504.6 290.2 503.74 289.92 504.12 290.98 503.7 291.54 503.71 292.25 502.25 294.35 501.75 294.83 501.09 296.23 501.24 297.05 500.54 298.09 500.8 298.85 500.71 299.44 500.21 299.63 500.05 300.98 500.87 302.34 501.17 304.16 501.86 304.92 501.95 305.69 501.54 305.91 501.45 306.42 500.99 306.59 501.21 307.16 500.99 308.26 501.5 308.25 502.08 308.69 502.94 309 502.83 309.36 503.75 310.86 503.97 311.44 503.24 312.09 502.48 312.29 502.04 312.13 501.5 312.44 501.46 312.98 501.06 313.45 500.67 315.06 500.36 315.39 501.06 315.91 501.9 316.04 502.27 316.94 502.89 316.84 503.61 317.09 504.19 317.86 504.28 318.81 504.53 319.22 503.77 319.93 503.07 319.99 503.04 320.81 503.89 321.12 504.26 321.77 505.21 321.9 505.31 322.44 504.64 322.49 504.48 323.16 504.76 324 505.99 323.53 506.81 324.04 507.33 324.78 507.86 325.06 508.76 325.06 509.37 325.28 510 326.14 511.36 325.3 512.31 324.84 512.52 326.14 512.28 326.35 512.15 327.19 512.32 328.2 511.88 328.84 512.15 330.62 511.99 331.41 512.02 332.36 512.34 333.11 511.65 333.69 511.63 334.53 512.01 335.49 512.76 335.88 512.5 336.76 512.14 337.19 512.05 338.81 512.11 340.23 512.7 341.43 511.76 342.11 511.59 342.84 510.9 343.29 510.71 344.21 509.6 344.84 508.39 345.2 508.26 346.61 508.04 347.26 508.09 348.04 508.61 349.3 509.68 350.57 509.63 351.19 510.03 351.74 509.37 352.29 508.78 352.23 508.38 351.48 508.39 350.88 507.7 350.7 507.34 350.12 506.52 349.26 505.8 349.33 504.52 348.65 503.45 348.54 502.45 347.85 502.02 347.32 501.12 347.63 500.75 348.08 500.62 349.27 500.08 349.89 500.05 350.41 499.2 350.52 498.45 349.82 498.46 349.38 497.78 349.28 497.73 348.7 497.86 346.95 498.13 346.38 498.02 345.64 497.5 345.1 497.39 344.63 496.47 343.92 496.42 343.53 495.8 342.25 495.95 341.56 496.68 340.75 496.52 340.35 496.77 339.82 497.31 339.74 497.4 338.59 496.9 337.65 498.27 336.83 498.14 335.79 497.66 334.52 497.14 333.96 496.77 333.13 496.91 332.38 496.64 331.63 496.26 329.93 495.69 328.6 495.77 327.67 494.78 326.37 494.77 325.87 493.66 325.12 493.66 324.79 492.99 324.11 493.21 323.14 492.47 321.35 492.48 320.52 491.96 319.65 489.53 317.31 489.05 316.29 488 315.22 485.19 313.42 483.2 312.41 482.54 311.96 481.97 311.88 480.69 311.14 479.46 310.56 478.06 309.75 476.3 308.17 476.07 307.48 475.39 307.45 475.35 306.57 475.5 305.14 475.27 303.56 475.93 301.51 476.34 301.28 476.82 300.12 477.16 298.26 477.06 297.27 476.42 296.61 476.12 295.8 476.28 294.79 476.35 292.09 476.82 290.56 477.2 290.27 477.48 289.51 477.84 287.9 477.86 286.96 477.69 284.54 477.72 283.78 477.98 282.66 478.49 281.5 478.75 280.32 478.86 279.13 479.45 278.54 481.57 279.04 482.09 279.3 483.14 278.95 484.16 279.24 485.55 279.27 486.52 278.53 487.16 277.76 488.76 276.55 489.59 275.8 490.75 275.61 492.65 274.86 492.92 275.49 493.67 275.29 493.9 276.86 495.13 277.05 495.33 276.6 496.22 276.45 497.31 275.22 498.91 275.2 499.38 275.56 500.3 275.77 500.81 276.39 501.28 276.48 501.82 277.08 501.96 277.67 503.11 278.77 504.23 278.22 504.26 277.46 504.86 277.53 505.86 277.02 506.58 276.38 507.37 276.34 507.98 276.8 508.47 277.46 508.94 277.02 509.83 278.16 Z"/>
</g>
</svg>